<svg width="17" height="16" viewBox="0 0 17 16" fill="none" xmlns="http://www.w3.org/2000/svg">
<path d="M7.84223 0.71817C8.04978 0.311043 8.15356 0.107479 8.29445 0.0424402C8.41703 -0.0141467 8.55944 -0.0141467 8.68202 0.0424402C8.82291 0.107479 8.92669 0.311043 9.13425 0.71817L11.1034 4.58069C11.1647 4.70088 11.1953 4.76098 11.2401 4.80764C11.2798 4.84895 11.3273 4.88243 11.3801 4.90621C11.4398 4.93306 11.5083 4.94276 11.6452 4.96214L16.05 5.5855C16.5138 5.65114 16.7457 5.68396 16.8531 5.79365C16.9465 5.88908 16.9904 6.02022 16.9726 6.15055C16.9522 6.30035 16.7843 6.45869 16.4485 6.77537L13.2623 9.77999C13.163 9.87366 13.1134 9.92049 13.0813 9.97621C13.0529 10.0255 13.0347 10.0797 13.0277 10.1358C13.0198 10.1991 13.0315 10.2653 13.055 10.3976L13.8067 14.6415C13.886 15.0891 13.9257 15.3129 13.8512 15.4457C13.7863 15.5613 13.6711 15.6423 13.5376 15.6663C13.3841 15.6938 13.1765 15.5881 12.7613 15.3768L8.82356 13.3717C8.70087 13.3093 8.63952 13.278 8.57489 13.2658C8.51767 13.2549 8.45881 13.2549 8.40158 13.2658C8.33695 13.278 8.27561 13.3093 8.15291 13.3717L4.21513 15.3768C3.79997 15.5881 3.5924 15.6938 3.43891 15.6663C3.30537 15.6423 3.19014 15.5613 3.12531 15.4457C3.05081 15.3129 3.09045 15.0891 3.16974 14.6415L3.92152 10.3976C3.94496 10.2653 3.95667 10.1991 3.94875 10.1358C3.94172 10.0797 3.92352 10.0255 3.89515 9.97621C3.86311 9.92049 3.81345 9.87365 3.71413 9.77999L0.528019 6.77537C0.192213 6.45869 0.0243107 6.30035 0.00387907 6.15055C-0.0138976 6.02022 0.030019 5.88908 0.123402 5.79365C0.230731 5.68396 0.462651 5.65114 0.92649 5.5855L5.33123 4.96214C5.46822 4.94276 5.53671 4.93306 5.59636 4.90621C5.64917 4.88243 5.69672 4.84895 5.73636 4.80764C5.78114 4.76098 5.81177 4.70088 5.87305 4.58069L7.84223 0.71817Z" fill="#FFA928"/>
</svg>
